<svg width="14" height="16" viewBox="0 0 14 16" fill="none" xmlns="http://www.w3.org/2000/svg">
<path d="M7.731 0.551859C7.69136 0.394553 7.59771 0.254604 7.46513 0.154512C7.33254 0.0544202 7.16872 0 7 0C6.83128 0 6.66745 0.0544202 6.53487 0.154512C6.40229 0.254604 6.30864 0.394553 6.269 0.551859C5.71347 2.75635 5.12486 4.08559 4.29158 5.01278C3.46932 5.92844 2.33922 6.52861 0.511214 7.1211C0.362199 7.16941 0.23273 7.26134 0.141026 7.38392C0.049322 7.50651 0 7.65359 0 7.80447C0 7.95535 0.049322 8.10243 0.141026 8.22502C0.23273 8.3476 0.362199 8.43952 0.511214 8.48784C2.42045 9.10629 3.56559 9.75937 4.3738 10.6923C5.19505 11.6407 5.73954 12.9574 6.269 15.0561C6.30864 15.2134 6.40229 15.3534 6.53487 15.4535C6.66745 15.5536 6.83128 15.608 7 15.608C7.16872 15.608 7.33254 15.5536 7.46513 15.4535C7.59771 15.3534 7.69136 15.2134 7.731 15.0561C8.28652 12.8526 8.87614 11.5233 9.70842 10.5962C10.5307 9.6805 11.6608 9.08033 13.4888 8.48784C13.6378 8.43952 13.7673 8.3476 13.859 8.22502C13.9507 8.10243 14 7.95535 14 7.80447C14 7.65359 13.9507 7.50651 13.859 7.38392C13.7673 7.26134 13.6378 7.16941 13.4888 7.1211C11.5765 6.50168 10.4334 5.85149 9.6262 4.91853C8.80595 3.97209 8.26246 2.65632 7.731 0.551859Z" fill="#FFE0BB"/>
</svg>
