<svg width="25" height="24" viewBox="0 0 25 24" fill="none" xmlns="http://www.w3.org/2000/svg">
<path d="M10.8374 15L16.0274 12L10.8374 8.99997V15ZM22.3974 7.16997C22.5274 7.63997 22.6174 8.26997 22.6774 9.06997C22.7474 9.86997 22.7774 10.56 22.7774 11.16L22.8374 12C22.8374 14.19 22.6774 15.8 22.3974 16.83C22.1474 17.73 21.5674 18.31 20.6674 18.56C20.1974 18.69 19.3374 18.78 18.0174 18.84C16.7174 18.91 15.5274 18.94 14.4274 18.94L12.8374 19C8.6474 19 6.0374 18.84 5.0074 18.56C4.1074 18.31 3.5274 17.73 3.2774 16.83C3.1474 16.36 3.0574 15.73 2.9974 14.93C2.9274 14.13 2.8974 13.44 2.8974 12.84L2.8374 12C2.8374 9.80997 2.9974 8.19997 3.2774 7.16997C3.5274 6.26997 4.1074 5.68997 5.0074 5.43997C5.4774 5.30997 6.3374 5.21997 7.6574 5.15997C8.9574 5.08997 10.1474 5.05997 11.2474 5.05997L12.8374 4.99997C17.0274 4.99997 19.6374 5.15997 20.6674 5.43997C21.5674 5.68997 22.1474 6.26997 22.3974 7.16997Z" fill="white"/>
</svg>
