<svg width="17" height="17" viewBox="0 0 17 17" fill="none" xmlns="http://www.w3.org/2000/svg">
<path d="M13.8344 8.5C13.8344 6.28125 12.4781 4.38125 10.5531 3.57812L10.0406 4.80937C11.4844 5.4125 12.5 6.8375 12.5 8.5C12.5 10.1656 11.4844 11.5875 10.0375 12.1906L10.55 13.4219C12.4781 12.6187 13.8344 10.7188 13.8344 8.5ZM11.1656 8.5C11.1656 7.39062 10.4875 6.44063 9.525 6.04063L9.0125 7.27187C9.49375 7.47187 9.83125 7.94688 9.83125 8.50313C9.83125 9.05625 9.49375 9.53125 9.0125 9.73438L9.525 10.9656C10.4875 10.5594 11.1656 9.60938 11.1656 8.5ZM11.5781 1.11563L11.0625 2.34687C13.4719 3.35 15.1656 5.725 15.1656 8.5C15.1656 11.2719 13.4719 13.65 11.0625 14.6531L11.575 15.8844C14.4688 14.6781 16.5 11.8281 16.5 8.5C16.5 5.17188 14.4688 2.32187 11.5781 1.11563ZM0.5 5.16563V11.8313H3.16563L7.83437 16.5V0.5L3.16563 5.16563H0.5Z" fill="#9DE9EC"/>
</svg>
